#!OML:ASF F:\VICON\USERDATA\INSTALL\rory3\rory3.ASF
:FULLY-SPECIFIED
:DEGREES
2098
root 3.87809 16.742 -4.40137 2.08741 -64.9956 -2.80698
lowerback 10.6732 -0.333926 -3.1034
upperback 2.11441 -0.750522 2.21817
thorax -3.70682 -0.355469 4.1731
lowerneck -21.4448 -0.909489 -10.718
upperneck 22.0576 -0.0234161 8.65405
head 10.6239 0.122015 4.93407
rclavicle -8.44835e-016 1.88845e-014
rhumerus -26.84 11.602 -80.2287
rradius 133.358
rwrist 3.2858
rhand -20.1364 25.11
rfingers 7.12502
rthumb 6.20814 -4.77908
lclavicle -8.44835e-016 1.88845e-014
lhumerus -16.8481 -1.29177 88.9581
lradius 127.72
lwrist -12.3927
lhand -6.39729 7.14432
lfingers 7.12502
lthumb 19.4504 36.1915
rfemur -10.1282 -2.56897 10.6063
rtibia 50.2828
rfoot -24.0071 5.242
rtoes -19.8401
lfemur -25.7352 -6.41407 -0.99732
ltibia 72.0462
lfoot 18.3833 5.88362
ltoes -4.82972
2099
root 3.83036 16.7103 -4.38335 1.48239 -65.9988 -2.17651
lowerback 10.9249 -0.325743 -2.88795
upperback 2.15376 -0.724121 2.21877
thorax -3.81038 -0.344414 4.05223
lowerneck -21.6397 -0.833723 -10.6677
upperneck 21.9781 0.0796368 8.70302
head 10.6192 0.185149 4.95917
rclavicle 1.09083e-013 -7.15625e-015
rhumerus -26.7521 11.6676 -80.1611
rradius 132.953
rwrist 3.30289
rhand -19.8889 24.7643
rfingers 7.12502
rthumb 6.44704 -5.11755
lclavicle 1.09083e-013 -7.15625e-015
lhumerus -17.2574 -0.740864 88.9378
lradius 127.753
lwrist -12.3643
lhand -6.58885 7.07728
lfingers 7.12502
lthumb 19.2662 36.1429
rfemur -10.0022 -1.92341 10.306
rtibia 50.118
rfoot -24.8129 5.35551
rtoes -19.8556
lfemur -26.3781 -5.89487 -1.41924
ltibia 73.334
lfoot 16.8534 2.8627
ltoes -6.27721
2100
root 3.78807 16.6757 -4.37252 1.05924 -66.9298 -1.76301
lowerback 11.4509 -0.315223 -2.76393
upperback 2.09299 -0.703958 2.3278
thorax -4.16683 -0.328114 4.10569
lowerneck -21.7325 -0.710086 -10.4202
upperneck 21.8794 0.239378 8.49345
head 10.5835 0.257795 4.85993
rclavicle -1.93815e-014 2.22639e-014
rhumerus -27.022 11.9892 -80.0731
rradius 132.551
rwrist 3.16982
rhand -19.8206 24.5221
rfingers 7.12502
rthumb 6.51299 -5.35773
lclavicle -1.93815e-014 2.22639e-014
lhumerus -17.713 -0.169449 89.0872
lradius 127.775
lwrist -12.5246
lhand -6.30868 6.87535
lfingers 7.12502
lthumb 19.5356 35.9139
rfemur -9.92165 -1.27015 10.162
rtibia 49.9751
rfoot -25.6362 5.1971
rtoes -21.0658
lfemur -27.1474 -5.26784 -1.70742
ltibia 74.5558
lfoot 15.1228 0.360241
ltoes -8.81393
2101
root 3.74556 16.6426 -4.35724 1.2528 -67.8573 -1.94301
lowerback 11.774 -0.231889 -2.38144
upperback 2.06988 -0.545357 2.55239
thorax -4.38575 -0.250723 4.10848
lowerneck -21.8175 -0.709695 -10.4125
upperneck 21.839 0.285913 8.35381
head 10.5806 0.265066 4.8134
rclavicle -9.14409e-015 -5.1684e-015
rhumerus -27.2496 12.179 -80.0692
rradius 132.011
rwrist 3.21411
rhand -19.7575 24.4564
rfingers 7.12502
rthumb 6.57396 -5.42152
lclavicle -9.14409e-015 -5.1684e-015
lhumerus -18.1673 -0.102993 89.5094
lradius 127.907
lwrist -12.7736
lhand -6.39314 7.08693
lfingers 7.12502
lthumb 19.4544 36.1337
rfemur -9.9177 -0.590405 10.2569
rtibia 49.8528
rfoot -26.4019 5.09238
rtoes -22.2126
lfemur -28.0278 -4.48455 -1.73488
ltibia 75.7006
lfoot 13.3593 -1.33367
ltoes -10.2051
2102
root 3.70146 16.6132 -4.33813 1.35073 -68.6969 -1.97639
lowerback 11.9381 -0.179949 -2.02894
upperback 2.10207 -0.429998 2.74694
thorax -4.45424 -0.199015 4.09846
lowerneck -21.9425 -0.69401 -10.3884
upperneck 21.788 0.353694 8.2134
head 10.5789 0.28435 4.76732
rclavicle 7.66315e-014 3.97569e-015
rhumerus -27.1465 12.0521 -80.1234
rradius 131.589
rwrist 2.68786
rhand -18.8779 24.6166
rfingers 7.12502
rthumb 7.42305 -5.23314
lclavicle 7.66315e-014 3.97569e-015
lhumerus -18.6399 -0.307183 89.9676
lradius 128.159
lwrist -13.1733
lhand -6.41048 7.35187
lfingers 7.12502
lthumb 19.4377 36.4003
rfemur -9.91569 0.102382 10.2467
rtibia 49.7278
rfoot -27.1634 5.50057
rtoes -20.7419
lfemur -28.9645 -3.67514 -1.85994
ltibia 76.717
lfoot 11.8425 -2.40217
ltoes -9.79103
2103
root 3.65305 16.5835 -4.31705 0.863741 -69.4812 -1.33805
lowerback 11.9704 -0.23055 -1.94791
upperback 2.19573 -0.490895 2.7772
thorax -4.36901 -0.234736 4.09295
lowerneck -22.127 -0.512892 -9.99519
upperneck 21.6941 0.549543 8.01206
head 10.5597 0.388005 4.65459
rclavicle 6.95746e-016 -1.11319e-014
rhumerus -26.8857 11.9988 -80.3467
rradius 131.384
rwrist 1.64213
rhand -17.708 24.6134
rfingers 7.12502
rthumb 8.55211 -5.19338
lclavicle 6.95746e-016 -1.11319e-014
lhumerus -18.9228 -0.253144 90.1153
lradius 128.339
lwrist -13.7463
lhand -6.12023 7.20672
lfingers 7.12502
lthumb 19.7168 36.2268
rfemur -9.92696 0.811192 9.95919
rtibia 49.5894
rfoot -27.856 5.94775
rtoes -19.0491
lfemur -29.8626 -2.80913 -2.31159
ltibia 77.549
lfoot 10.3901 -3.34109
ltoes -9.61998
2104
root 3.6034 16.5571 -4.29015 0.0522324 -70.2498 -0.348061
lowerback 11.9511 -0.252015 -1.90954
upperback 2.31541 -0.520363 2.76725
thorax -4.23078 -0.255722 4.06293
lowerneck -22.2573 -0.387569 -9.74639
upperneck 21.548 0.685463 7.91283
head 10.5177 0.464858 4.59267
rclavicle -3.67752e-015 8.74653e-015
rhumerus -26.6671 12.1102 -80.6798
rradius 130.932
rwrist 1.7597
rhand -17.7888 24.6755
rfingers 7.12502
rthumb 8.4742 -5.13443
lclavicle -3.67752e-015 8.74653e-015
lhumerus -18.9308 -0.074755 90.1075
lradius 128.405
lwrist -14.3517
lhand -6.0998 7.11203
lfingers 7.12502
lthumb 19.7364 36.1301
rfemur -9.9304 1.45672 9.50659
rtibia 49.4177
rfoot -28.2347 6.09033
rtoes -19.7177
lfemur -30.7191 -1.88846 -2.96479
ltibia 78.2056
lfoot 8.78643 -4.20281
ltoes -10.9225
2105
root 3.55495 16.5392 -4.25238 -1.00024 -71.0041 0.853512
lowerback 12.0201 -0.246898 -1.84405
upperback 2.37966 -0.50971 2.76942
thorax -4.20296 -0.253981 4.02674
lowerneck -22.2744 -0.287705 -9.58223
upperneck 21.4025 0.814482 7.76757
head 10.4563 0.523711 4.52488
rclavicle 2.78299e-014 7.15625e-015
rhumerus -26.5964 12.2597 -80.9286
rradius 130.395
rwrist 2.77854
rhand -18.6426 24.8514
rfingers 7.12502
rthumb 7.65009 -4.99019
lclavicle 2.78299e-014 7.15625e-015
lhumerus -18.8888 0.121314 90.0312
lradius 128.486
lwrist -15.0644
lhand -6.54039 7.27464
lfingers 7.12502
lthumb 19.3128 36.3356
rfemur -9.8943 1.9823 8.94856
rtibia 49.205
rfoot -28.565 6.09805
rtoes -21.2637
lfemur -31.5008 -1.07687 -3.73304
ltibia 78.6667
lfoot 7.20067 -4.27858
ltoes -11.6083
2106
root 3.50514 16.5299 -4.20726 -1.88852 -71.7127 1.90801
lowerback 12.0883 -0.293265 -1.72099
upperback 2.39945 -0.556639 2.82465
thorax -4.21658 -0.279731 4.02332
lowerneck -22.3514 -0.113788 -9.39369
upperneck 21.4119 1.04972 7.57596
head 10.4526 0.62454 4.45834
rclavicle -3.00165e-014 -3.26007e-014
rhumerus -26.6572 12.4951 -81.0778
rradius 130.102
rwrist 3.50789
rhand -19.1828 24.9574
rfingers 7.12502
rthumb 7.12865 -4.90257
lclavicle -3.00165e-014 -3.26007e-014
lhumerus -18.7523 0.180551 89.8796
lradius 128.686
lwrist -16.0368
lhand -6.54557 7.37192
lfingers 7.12502
lthumb 19.3078 36.4334
rfemur -9.83534 2.47291 8.47399
rtibia 48.9324
rfoot -28.8471 5.97107
rtoes -22.6822
lfemur -32.2978 -0.401537 -4.43588
ltibia 78.9302
lfoot 5.83713 -3.80558
ltoes -11.1917
2107
root 3.45686 16.5234 -4.16403 -2.21967 -72.323 2.46918
lowerback 12.1196 -0.33536 -1.49931
upperback 2.39441 -0.581018 2.96988
thorax -4.23795 -0.294916 4.05513
lowerneck -22.4414 0.0122493 -9.2859
upperneck 21.4392 1.24929 7.3744
head 10.4621 0.700636 4.39765
rclavicle 3.3197e-014 2.06736e-014
rhumerus -26.6824 12.6507 -81.1771
rradius 129.971
rwrist 3.8285
rhand -19.3311 24.7977
rfingers 7.12502
rthumb 6.98554 -5.06699
lclavicle 3.3197e-014 2.06736e-014
lhumerus -18.3231 -0.312373 89.592
lradius 128.885
lwrist -17.1767
lhand -6.41722 7.55278
lfingers 7.12502
lthumb 19.4312 36.6019
rfemur -9.82959 2.96719 8.22444
rtibia 48.6139
rfoot -29.0609 5.90433
rtoes -22.973
lfemur -33.2568 0.338132 -4.93642
ltibia 79.026
lfoot 4.60061 -3.70362
ltoes -12.0831
2108
root 3.40755 16.5217 -4.11648 -2.3064 -72.8752 2.79683
lowerback 12.1381 -0.370285 -1.18961
upperback 2.3901 -0.585847 3.08469
thorax -4.2543 -0.301695 4.00133
lowerneck -22.4853 0.0901982 -9.09728
upperneck 21.3727 1.34529 7.19817
head 10.44 0.740756 4.31363
rclavicle -8.52786e-014 3.73715e-014
rhumerus -26.6623 12.6136 -81.3037
rradius 129.897
rwrist 3.96211
rhand -19.4169 24.8517
rfingers 7.12502
rthumb 6.9027 -5.01573
lclavicle -8.52786e-014 3.73715e-014
lhumerus -17.8448 -1.06251 89.0678
lradius 129.083
lwrist -18.327
lhand -6.57 7.63305
lfingers 7.12502
lthumb 19.2843 36.6969
rfemur -9.83318 3.32838 8.03864
rtibia 48.2557
rfoot -29.3135 6.05579
rtoes -22.1403
lfemur -34.2058 1.08752 -5.354
ltibia 78.9183
lfoot 3.47988 -3.94402
ltoes -13.0202
